<?xml version="1.0" encoding="iso-8859-1"?>
<!-- Generator: Adobe Illustrator 19.0.0, SVG Export Plug-In . SVG Version: 6.00 Build 0)  -->
<svg version="1.1" id="Capa_1" xmlns="http://www.w3.org/2000/svg" xmlns:xlink="http://www.w3.org/1999/xlink" x="0px" y="0px"
	 viewBox="0 0 496 496" style="enable-background:new 0 0 496 496;" xml:space="preserve">
<polygon style="fill:#E56565;" points="293.656,325.656 282.344,314.344 324.688,272 282.344,229.656 293.656,218.344 347.312,272 
	"/>
<polygon style="fill:#FFCB57;" points="176,40 176,96 128,96 128,120 368,120 368,40 "/>
<g>
	<polygon style="fill:#E56565;" points="202.344,325.656 148.688,272 202.344,218.344 213.656,229.656 171.312,272 213.656,314.344 
			"/>
	
		<rect x="186.87" y="263.999" transform="matrix(-0.1846 0.9828 -0.9828 -0.1846 565.8224 74.5523)" style="fill:#E56565;" width="130.23" height="15.992"/>
</g>
<g>
	<path style="fill:#3F3A34;" d="M0,408c0,22.056,17.944,40,40,40h96v32h-32v16h288v-16h-32v-32h96c22.056,0,40-17.944,40-40v-24H0
		V408z M344,480H152v-32h192V480z M16,400h464v8c0,13.232-10.768,24-24,24H40c-13.232,0-24-10.768-24-24V400z"/>
	<path style="fill:#3F3A34;" d="M456,80h-32v16h32c13.232,0,24,10.768,24,24v248h16V120C496,97.944,478.056,80,456,80z"/>
	<path style="fill:#3F3A34;" d="M16,120c0-13.232,10.768-24,24-24h32V80H40C17.944,80,0,97.944,0,120v248h16V120z"/>
	<path style="fill:#3F3A34;" d="M408,0H148.688L88,60.688V80h72V16h232v336H104V96H88v272h320V0z M144,64h-36.688L144,27.312V64z"/>
	<polygon style="fill:#3F3A34;" points="120,96 120,128 376,128 376,32 176,32 176,48 360,48 360,112 136,112 136,96 	"/>
	<rect x="120" y="144" style="fill:#3F3A34;" width="16" height="16"/>
	<rect x="152" y="144" style="fill:#3F3A34;" width="224" height="16"/>
	<rect x="360" y="176" style="fill:#3F3A34;" width="16" height="16"/>
	<rect x="120" y="176" style="fill:#3F3A34;" width="224" height="16"/>
</g>
<g>
</g>
<g>
</g>
<g>
</g>
<g>
</g>
<g>
</g>
<g>
</g>
<g>
</g>
<g>
</g>
<g>
</g>
<g>
</g>
<g>
</g>
<g>
</g>
<g>
</g>
<g>
</g>
<g>
</g>
</svg>
